<svg version="1.1" xmlns="http://www.w3.org/2000/svg" viewBox="0 0 100 100">
    <g id="Chassis">
        <rect x="10" y="5" width="80" height="20" rx="5" fill="#1a1a1a" stroke="#000" stroke-width="2"/>
        <line x1="15" y1="5" x2="15" y2="25" stroke="#333" stroke-width="2"/>
        <line x1="25" y1="5" x2="25" y2="25" stroke="#333" stroke-width="2"/>
        <line x1="35" y1="5" x2="35" y2="25" stroke="#333" stroke-width="2"/>
        <line x1="45" y1="5" x2="45" y2="25" stroke="#333" stroke-width="2"/>
        <line x1="55" y1="5" x2="55" y2="25" stroke="#333" stroke-width="2"/>
        <line x1="65" y1="5" x2="65" y2="25" stroke="#333" stroke-width="2"/>
        <line x1="75" y1="5" x2="75" y2="25" stroke="#333" stroke-width="2"/>
        <line x1="85" y1="5" x2="85" y2="25" stroke="#333" stroke-width="2"/>

        <rect x="10" y="75" width="80" height="20" rx="5" fill="#1a1a1a" stroke="#000" stroke-width="2"/>
        <line x1="15" y1="75" x2="15" y2="95" stroke="#333" stroke-width="2"/>
        <line x1="25" y1="75" x2="25" y2="95" stroke="#333" stroke-width="2"/>
        <line x1="35" y1="75" x2="35" y2="95" stroke="#333" stroke-width="2"/>
        <line x1="45" y1="75" x2="45" y2="95" stroke="#333" stroke-width="2"/>
        <line x1="55" y1="75" x2="55" y2="95" stroke="#333" stroke-width="2"/>
        <line x1="65" y1="75" x2="65" y2="95" stroke="#333" stroke-width="2"/>
        <line x1="75" y1="75" x2="75" y2="95" stroke="#333" stroke-width="2"/>
        <line x1="85" y1="75" x2="85" y2="95" stroke="#333" stroke-width="2"/>

        <rect x="15" y="22" width="70" height="56" rx="5" fill="#2F4F4F" stroke="#000" stroke-width="2"/>

        <rect x="20" y="28" width="15" height="44" rx="2" fill="#3a6060"/>
        <circle cx="75" cy="30" r="3" fill="#888"/> <circle cx="75" cy="70" r="3" fill="#888"/> </g>

    <g id="TurretBase">
        <circle cx="50" cy="50" r="22" fill="#228B22" stroke="#000" stroke-width="2"/>
        <circle cx="50" cy="50" r="10" fill="#2E8B57" stroke="#000" stroke-width="1"/>
    </g>
</svg>